<svg xmlns="http://www.w3.org/2000/svg" fill="none" viewBox="0 0 111 99">
<path fill="#000" d="M70.188 10.685c5.127 0 9.672 3.297 11.264 8.17l17.425 53.368c2.501 7.659-3.206 15.526-11.263 15.526h-21.19a5.342 5.342 0 1 0 0 10.685h21.19c15.322 0 26.176-14.962 21.42-29.528L91.609 15.54A22.534 22.534 0 0 0 70.189 0h-22.19a22.533 22.533 0 0 0-20.6 13.4L1.713 71.34c-5.88 13.261 4.13 28.107 18.628 27.63l16.334-.539a5.32 5.32 0 0 0 3.3-1.283 5.337 5.337 0 0 0 3.966-3.12L67.7 39.723a5.342 5.342 0 1 0-9.79-4.282L35.005 87.796l-15.015.495c-6.623.218-11.194-6.563-8.509-12.62l25.688-57.94A11.849 11.849 0 0 1 48 10.685h22.188Z"/><path fill="#000" d="M65.607 65.93a5.342 5.342 0 1 0 9.89 4.045l3.811-9.32a5.342 5.342 0 1 0-9.889-4.045l-3.812 9.32Z"/>
<style>
    @media (prefers-color-scheme:dark){:root{filter:invert(100%)}}
  </style>
</svg>