<svg xmlns="http://www.w3.org/2000/svg" width="694" height="260" fill="none" viewBox="0 0 694 260"><path fill="#BEBFB6" d="m23.499 93.715 8.951-20.701h46.858l8.812 20.701h24.058L70.916 0H40.983L0 93.715h23.499ZM49.375 33.71l5.735-14.547h1.538l5.735 14.547 8.812 20.421H40.563l8.812-20.421ZM135.256 93.715V58.327c0-11.889 4.756-17.204 18.044-17.204 12.868 0 17.484 4.756 17.484 15.945v36.647h20.981v-43.64c0-15.526-9.092-27.835-28.255-27.835-18.323 0-26.715 11.19-28.534 22.94h-1.259V23.638h-19.442v70.076h20.981ZM230.913 95.114c16.085 0 25.317-6.994 27.974-20.841h1.119v19.442h19.582V0h-20.98v42.242h-1.259c-2.378-11.75-10.91-20.002-27.555-20.002-20.841 0-32.731 14.127-32.731 36.507 0 22.1 12.03 36.367 33.85 36.367Zm-12.589-36.367c0-12.868 6.294-17.344 19.722-17.344s20.562 4.476 20.562 16.644v1.12c0 12.168-7.274 16.784-20.562 16.784-13.428 0-19.722-4.476-19.722-17.204ZM308.873 93.715V53.152c0-8.812 3.357-13.148 12.729-13.148 8.532 0 11.609 3.357 11.609 11.05v7.273h20.981v-11.61c0-13.707-6.434-24.477-22.1-24.477-14.127 0-21.54 8.672-23.499 20.002h-1.258V23.639h-19.443v70.076h20.981ZM396.199 95.114c22.24 0 37.066-10.63 37.066-25.877V67.7h-20.981v1.398c0 6.015-4.336 9.232-16.785 9.232-13.567 0-18.603-4.616-19.162-15.386h57.068c.28-2.378.559-4.196.559-6.714 0-21.96-15.246-33.989-38.185-33.989-23.079 0-38.885 14.127-38.885 36.507 0 24.897 15.946 36.367 39.305 36.367Zm-.84-56.509c12.309 0 17.904 4.056 18.464 13.288h-37.206c.979-9.092 6.294-13.288 18.742-13.288ZM479.788 93.715l12.169-33.71 5.315-19.302h1.539l5.175 19.303 12.029 33.709h26.156l19.862-70.076h-21.4l-8.113 32.03-3.077 21.82h-1.399l-5.595-23.918-10.49-29.932h-26.996l-10.63 29.933-5.595 23.918h-1.399l-2.937-21.82-8.252-32.031h-21.681l19.163 70.076h26.156ZM20.98 235.614v-36.087h23.64l24.197 36.087h25.178l-32.171-47.557 32.59-46.158H69.237L44.34 179.105H20.98v-37.206H0v93.715h20.98ZM118.457 237.012c15.526 0 25.317-6.574 28.534-17.484h1.119v16.086h19.582v-41.123c0-18.323-11.05-30.352-34.408-30.352-23.079 0-37.626 12.029-37.626 29.373v.42h21.121v-.56c0-7.973 4.336-10.77 14.966-10.77 11.19 0 15.246 2.518 15.246 11.609v2.658l-30.073 3.077c-14.966 1.539-22.659 7.973-22.659 18.324 0 11.749 9.092 18.742 24.198 18.742Zm-3.077-20.141c0-3.357 2.238-4.756 7.273-5.176l24.338-2.797c-.559 9.931-8.252 13.288-22.519 13.288-6.155 0-9.092-1.539-9.092-5.315ZM196.51 235.614v-93.715h-20.98v93.715h20.98ZM225.676 235.614v-93.715h-20.981v93.715h20.981ZM271.067 237.012c22.24 0 37.066-10.63 37.066-25.876v-1.539h-20.981v1.399c0 6.015-4.336 9.232-16.784 9.232-13.568 0-18.603-4.616-19.163-15.386h57.068c.28-2.378.56-4.196.56-6.714 0-21.96-15.246-33.989-38.186-33.989-23.079 0-38.884 14.127-38.884 36.507 0 24.897 15.945 36.366 39.304 36.366Zm-.839-56.508c12.309 0 17.904 4.056 18.463 13.288h-37.206c.979-9.092 6.294-13.288 18.743-13.288ZM335.914 235.614v-35.388c0-12.169 3.636-17.204 16.365-17.204 12.029 0 16.085 4.336 16.085 15.945v36.647h20.981v-35.388c0-12.169 3.637-17.204 16.365-17.204 12.029 0 16.085 4.336 16.085 15.945v36.647h20.981v-43.641c0-15.945-8.812-27.834-26.855-27.834-18.044 0-25.177 11.05-26.856 22.939h-1.259c-1.538-13.008-9.791-22.939-26.016-22.939-17.624 0-24.618 10.91-26.296 22.659h-1.119v-21.261h-19.442v70.077h20.981ZM487.848 237.012c22.24 0 37.067-10.63 37.067-25.876v-1.539h-20.981v1.399c0 6.015-4.336 9.232-16.785 9.232-13.568 0-18.603-4.616-19.163-15.386h57.068c.28-2.378.56-4.196.56-6.714 0-21.96-15.246-33.989-38.185-33.989-23.079 0-38.885 14.127-38.885 36.507 0 24.897 15.945 36.366 39.304 36.366Zm-.839-56.508c12.309 0 17.904 4.056 18.463 13.288h-37.206c.979-9.092 6.294-13.288 18.743-13.288ZM545.141 259.392c17.624 0 26.996-4.056 33.71-18.743l34.688-75.112h-23.358l-13.288 31.891-5.595 16.645h-1.399l-5.875-16.505-14.826-32.031h-23.779l34.269 70.357c-1.398 3.077-3.636 4.475-8.812 4.475h-17.204v19.023h11.469ZM636.771 235.614v-35.388c0-11.889 4.756-17.204 18.044-17.204 12.868 0 17.484 4.755 17.484 15.945v36.647h20.981v-43.641c0-15.525-9.092-27.834-28.254-27.834-18.324 0-26.716 11.19-28.534 22.939h-1.259v-21.541H615.79v70.077h20.981Z"/><path fill="#000" fill-rule="evenodd" d="M319.847 70.668c-3.112.4-10.848 2.47-17.19 4.602l-11.531 3.877v2.865c0 2.522.272 2.895 2.269 3.125 1.247.143 6.752-1.26 12.232-3.118 17.939-6.084 32.051-6.209 41.187-.366 7.843 5.017 8.785 11.827 2.814 20.35-2.924 4.174-13.011 14.349-20.833 21.017-1.794 1.528-7.687 6.804-13.098 11.724-35.457 32.243-47.55 45.673-55.654 61.807-4.082 8.127-4.695 11.897-2.069 12.73 3.025.96 4.485-.355 7.265-6.547 3.572-7.953 10.367-17.585 19.632-27.828 8.95-9.894 32.341-31.833 32.723-30.691.698 2.092 36.615-.939 58.201-4.911 6.342-1.168 7.049-1.06 8.091 1.227.889 1.951 1.26 2.046 7.942 2.046 7.997 0 16.192-1.512 26.441-4.88l7.104-2.334 2.087 1.966c3.251 3.063 12.834 4.087 22.98 2.454 7.28-1.171 19.529-4.907 24.539-7.484 1.969-1.013 2.253-.927 3.795 1.158 1.348 1.823 2.901 2.519 8.122 3.641 5.388 1.157 10.927 1.373 33.451 1.3 14.847-.047 30.727-.324 35.288-.614 8.786-.558 14.463.364 14.838 2.411.137.744-3.729 3.158-10.873 6.79-9.86 5.013-13.168 7.075-18.691 11.654-1.742 1.444-1.355 5.558.717 7.63 1.063 1.062 1.856 1.033 6.659-.247 2.998-.799 7.696-2.579 10.44-3.957 6.126-3.076 14.975-10.105 16.553-13.15.843-1.624 3.74-3.545 10.355-6.866 12.424-6.236 17.601-7.878 38.636-12.253 16.658-3.465 34.567-8.254 38.266-10.234 1.124-.601 1.48-1.545 1.297-3.434-.351-3.615-2.926-3.751-12.357-.651-8.346 2.743-12.534 3.756-32.917 7.963-15.957 3.292-22.196 5.24-33.291 10.394l-7.914 3.676-.988-2.384c-.795-1.92-1.876-2.642-5.553-3.711-3.942-1.146-6.806-1.229-20.976-.607-32.339 1.419-65.139.376-65.11-2.071.003-.266 2.305-1.783 5.116-3.372 3.614-2.043 5.189-3.441 5.381-4.773.318-2.222-1.944-5.024-4.058-5.024-2.188 0-9.942 3.603-11.305 5.252-2.779 3.363-20.864 10.283-30.973 11.851-6.125.951-14.567.462-16.351-.945-.563-.444-1.024-1.658-1.024-2.698 0-3.095-2.707-3.227-9.669-.474-7.58 2.998-13.135 4.583-21.846 6.234-8.293 1.572-7.776 1.646-7.776-1.113 0-4.462-1.261-4.66-14.556-2.287-6.627 1.183-19.599 3.086-28.829 4.229-9.229 1.143-17.702 2.269-18.827 2.503-3.816.791 4.352-3.56 21.064-11.22 8.9-4.08 23.917-10.997 33.371-15.372 23.005-10.645 22.449-10.422 34.479-13.839l10.543-2.995v-2.863c0-2.485-.285-2.895-2.161-3.113-5.14-.595-22.352 4.973-37.949 12.275-6.753 3.162-20.751 9.577-31.106 14.255l-18.827 8.506 6.748-6.587c9.773-9.538 13.324-15.104 14.4-22.574.83-5.757.773-6.183-1.428-10.789-1.982-4.146-3.038-5.255-7.797-8.192-8.43-5.2-17.904-6.688-31.499-4.944ZM152.378 109.87c-1.576.374-8.023 1.84-14.326 3.258-23.881 5.372-100.332 24.653-104.32 26.31-2.857 1.187-4.314 2.315-4.633 3.587-.474 1.886.82 5.2 2.456 6.292 2.592 1.73 20.865.054 37.737-3.462 7.52-1.567 45.377-8.649 65.895-12.326 4.728-.847 11.726-1.553 15.553-1.569 3.827-.016 10.274-.562 14.325-1.212 8.695-1.396 30.204-3.39 44.613-4.136 5.628-.291 14.938-1.437 20.689-2.546 5.752-1.11 14.224-2.362 18.828-2.784 4.603-.422 9.475-1.082 10.826-1.466 2.253-.642 2.591-.46 4.098 2.197 2.437 4.295 7.553 5.099 30.682 4.824l18.427-.22v-5.729l-16.781-.55c-9.229-.302-18.667-.783-20.972-1.068l-4.192-.519.39-3.465c.286-2.536.04-3.757-.919-4.552-1.422-1.18-1.217-1.209-13.189 1.883-4.502 1.162-10.438 2.118-13.189 2.123-2.753.006-9.383.898-14.735 1.982-5.352 1.085-13.967 2.207-19.144 2.492-17.377.958-30.617 2.138-42.359 3.772-6.414.893-16.912 1.975-23.329 2.403-6.418.429-15.167 1.521-19.444 2.426-4.278.905-8.33 1.622-9.005 1.594-2.278-.095 15.043-5.694 29.06-9.392 7.653-2.02 14.56-3.872 15.348-4.116 1.888-.584 1.998-5.67.138-6.384-1.668-.639-4.914-.505-8.528.353Zm-37.928 20.158c-.3.3-.791.3-1.091 0-.3-.3-.055-.546.545-.546.601 0 .846.246.546.546Zm-30.251 4.874c-.59.589-14.303 3.541-16.135 3.473-.675-.025 2.64-1.058 7.367-2.295 8.11-2.122 9.961-2.371 8.768-1.178Zm-18.386 4.125c-.563.227-1.484.227-2.047 0-.562-.227-.102-.413 1.024-.413 1.125 0 1.586.186 1.023.413Zm-3.7.771c-.273.272-.979.301-1.57.065-.653-.262-.459-.456.495-.495.863-.035 1.346.158 1.074.43Zm-4.145.869a.773.773 0 0 1-1.091 0c-.3-.3-.055-.545.545-.545.6 0 .846.245.546.545Z" clip-rule="evenodd"/></svg>