<svg xmlns="http://www.w3.org/2000/svg" width="72" height="64" fill="none" viewBox="0 0 72 64"><path fill="#182E65" d="M45.383 6.909a7.661 7.661 0 0 1 7.283 5.283l11.267 34.507c1.617 4.952-2.073 10.039-7.283 10.039H42.95a3.454 3.454 0 0 0 0 6.909H56.65c9.907 0 16.926-9.675 13.85-19.093L59.234 10.048A14.57 14.57 0 0 0 45.383 0H31.036a14.57 14.57 0 0 0-13.32 8.665L1.107 46.128c-3.801 8.575 2.67 18.174 12.045 17.865l10.561-.348a3.44 3.44 0 0 0 2.134-.83 3.45 3.45 0 0 0 2.564-2.017l15.362-35.113a3.454 3.454 0 1 0-6.33-2.77l-14.81 33.853-9.709.32c-4.281.14-7.237-4.244-5.501-8.16l16.61-37.463a7.661 7.661 0 0 1 7.003-4.556h14.347Z"/><path fill="#182E65" d="M42.42 42.63a3.454 3.454 0 0 0 6.395 2.615l2.465-6.026a3.454 3.454 0 0 0-6.394-2.616L42.42 42.63Z"/></svg>