<svg xmlns="http://www.w3.org/2000/svg" width="48" height="48" fill="none" viewBox="0 0 48 48"><g clip-path="url(#clip0_332_105)"><path fill="#182E65" fill-rule="evenodd" d="M24 48C10.8 48 0 37.2 0 24S10.8 0 24 0s24 10.8 24 24-10.8 24-24 24Zm20.2-20.7c-.7-.2-6.3-1.9-12.8-.9 2.7 7.4 3.8 13.4 4 14.6 4.7-3.1 7.9-8 8.8-13.7ZM32 42.9c-.3-1.8-1.5-8.1-4.4-15.5h-.1c-11.6 4-15.7 12-16.1 12.8 3.5 2.7 7.8 4.3 12.6 4.3 2.8 0 5.5-.5 8-1.6ZM8.8 37.7c.5-.8 6.1-10.1 16.7-13.5.3-.1.5-.2.8-.2-.5-1.2-1.1-2.3-1.7-3.5-10.2 3.1-20.2 2.9-21.1 2.9v.6c0 5.3 2 10.1 5.3 13.7ZM3.9 19.8c.9 0 9.4 0 19-2.5-3.4-6-7.1-11.1-7.6-11.9-5.8 2.8-10 8.1-11.4 14.4ZM19.2 4.1c.6.8 4.3 5.8 7.6 12 7.3-2.7 10.4-6.9 10.7-7.4C34 5.5 29.2 3.5 24 3.5c-1.7 0-3.3.2-4.8.6Zm20.7 7c-.4.6-3.9 5-11.4 8.1.5 1 .9 2 1.4 3 .2.4.3.7.4 1.1 6.8-.9 13.6.5 14.3.7-.1-5-1.9-9.4-4.7-12.9Z" clip-rule="evenodd"/></g><defs><clipPath id="clip0_332_105"><path fill="#fff" d="M0 0h48v48H0z"/></clipPath></defs></svg>