<svg xmlns="http://www.w3.org/2000/svg" width="32" height="33" fill="none" viewBox="0 0 32 33"><g clip-path="url(#clip0_332_140)"><path fill="#182E65" fill-rule="evenodd" d="M16 1.275c-8.867 0-16 7.133-16 16 0 7.067 4.6 13.067 10.933 15.2.8.133 1.067-.333 1.067-.8v-2.733c-4.467 1-5.4-2.134-5.4-2.134-.733-1.866-1.8-2.333-1.8-2.333-1.467-1 .133-1 .133-1 1.6.133 2.467 1.667 2.467 1.667 1.4 2.466 3.733 1.733 4.667 1.333.133-1.067.533-1.733 1-2.133-3.534-.4-7.267-1.8-7.267-7.934 0-1.733.6-3.2 1.667-4.266-.134-.4-.734-2 .133-4.267 0 0 1.333-.4 4.4 1.667a16.065 16.065 0 0 1 4-.534c1.333 0 2.733.2 4 .534 3.067-2.067 4.4-1.667 4.4-1.667.867 2.2.333 3.8.133 4.267 1 1.133 1.667 2.533 1.667 4.266 0 6.134-3.733 7.467-7.333 7.867.6.467 1.066 1.467 1.066 2.933v4.4c0 .4.267.934 1.134.8C27.4 30.342 32 24.342 32 17.275c0-8.867-7.133-16-16-16Z" clip-rule="evenodd"/></g><defs><clipPath id="clip0_332_140"><path fill="#fff" d="M0 .875h32v32H0z"/></clipPath></defs></svg>